<?xml version="1.0" encoding="UTF-8"?>
<svg version="1.1" xmlns="http://www.w3.org/2000/svg" width="250" height="250">
<path d="M0 0 C12.68841007 10.57307033 22.87590308 22.54962302 31 37 C31.60714844 38.07765625 32.21429688 39.1553125 32.83984375 40.265625 C36.36626806 46.90178454 39.03077086 53.54033978 41.3125 60.6875 C41.55500488 61.44691895 41.79750977 62.20633789 42.04736328 62.98876953 C45.50127315 74.35127867 46.37776473 85.3194101 46.3125 97.125 C46.30968018 97.85843628 46.30686035 98.59187256 46.30395508 99.34753418 C46.09337691 135.75967774 31.7300251 164.33688684 6.62109375 190.4765625 C3.82595061 193.16756469 0.8924283 195.58689504 -2.1875 197.9375 C-2.75122314 198.3691748 -3.31494629 198.80084961 -3.89575195 199.24560547 C-16.81950363 209 -16.81950363 209 -21 209 C-21.33 209.66 -21.66 210.32 -22 211 C-24.0390625 211.96484375 -24.0390625 211.96484375 -26.625 212.9375 C-29.54126157 214.04567939 -32.39968835 215.17988381 -35.24609375 216.4609375 C-56.25891855 225.44579017 -79.693639 223.53522092 -102 223 C-102 222.34 -102 221.68 -102 221 C-103.65 221.33 -105.3 221.66 -107 222 C-107 221.34 -107 220.68 -107 220 C-108.175625 219.95875 -109.35125 219.9175 -110.5625 219.875 C-135.93615394 217.07349247 -162.11076521 195.95953124 -177.5625 176.6875 C-188 162.88306452 -188 162.88306452 -188 159 C-188.66 159 -189.32 159 -190 159 C-191.10578618 156.33399497 -192.20966252 153.66722466 -193.3125 151 C-193.62123047 150.25621094 -193.92996094 149.51242188 -194.24804688 148.74609375 C-205.28475861 122.02563377 -208.82364907 91.01555481 -200 63 C-199.75330566 62.20851563 -199.50661133 61.41703125 -199.25244141 60.6015625 C-188.72005423 27.80827352 -165.62383057 0.85821312 -135.02929688 -15.01367188 C-128.25667592 -18.30546551 -121.17944371 -20.76227029 -114 -23 C-113.278125 -23.2273584 -112.55625 -23.4547168 -111.8125 -23.68896484 C-73.96382814 -35.00356091 -30.31294794 -24.56953431 0 0 Z M-98 -18 C-99.17175781 -17.75121094 -100.34351562 -17.50242187 -101.55078125 -17.24609375 C-102.79214844 -16.97925781 -104.03351563 -16.71242188 -105.3125 -16.4375 C-106.56675781 -16.16808594 -107.82101563 -15.89867187 -109.11328125 -15.62109375 C-110.06589844 -15.41613281 -111.01851563 -15.21117187 -112 -15 C-111.7834375 -14.40832031 -111.566875 -13.81664062 -111.34375 -13.20703125 C-108.57820738 -5.35852373 -108.57820738 -5.35852373 -109 -1 C-108.814375 -1.5775 -108.62875 -2.155 -108.4375 -2.75 C-106.29448878 -6.10427843 -103.51177437 -7.17907996 -100 -9 C-102.53919492 -0.5720339 -102.53919492 -0.5720339 -104.8125 2.25 C-106.2940253 3.99460041 -106.2940253 3.99460041 -105.5625 6.4375 C-103.50566296 9.81071275 -101.13966515 11.61112434 -98 14 C-98.165 13.505 -98.33 13.01 -98.5 12.5 C-99.20688818 8.96555911 -99.06005155 5.60309299 -99 2 C-98.01 2.66 -97.02 3.32 -96 4 C-95.70703125 6.8203125 -95.70703125 6.8203125 -95.8125 10.125 C-95.83957031 11.22070312 -95.86664063 12.31640625 -95.89453125 13.4453125 C-95.92933594 14.28835937 -95.96414062 15.13140625 -96 16 C-93.54894538 13.54894538 -93.25968733 11.33635676 -92.51171875 8.02734375 C-92 6 -92 6 -90.8125 3.25 C-89.85301144 0.59295477 -89.91666203 -0.41665562 -91 -3 C-91.7734375 -3.928125 -91.7734375 -3.928125 -92.5625 -4.875 C-94.45876848 -7.6781795 -94.22577486 -9.68863544 -94 -13 C-91.35247996 -10.42215154 -89.05567935 -8.08351902 -87 -5 C-86.73445313 -5.75925781 -86.46890625 -6.51851562 -86.1953125 -7.30078125 C-85.84210938 -8.29464844 -85.48890625 -9.28851563 -85.125 -10.3125 C-84.77695313 -11.29863281 -84.42890625 -12.28476563 -84.0703125 -13.30078125 C-83 -16 -83 -16 -81 -19 C-82.89575251 -19.02721176 -84.79161979 -19.04649136 -86.6875 -19.0625 C-87.74324219 -19.07410156 -88.79898438 -19.08570313 -89.88671875 -19.09765625 C-92.76472515 -19.00738001 -95.20387547 -18.64788251 -98 -18 Z M-76 -19 C-76.74955438 -16.0017825 -77.41070989 -13.03063487 -78 -10 C-79.423125 -9.6596875 -79.423125 -9.6596875 -80.875 -9.3125 C-84.19323388 -8.30916286 -84.19323388 -8.30916286 -85.375 -5.375 C-85.58125 -4.59125 -85.7875 -3.8075 -86 -3 C-85.505 -3.309375 -85.01 -3.61875 -84.5 -3.9375 C-81.02013219 -5.41644382 -77.75971491 -5.62402851 -74 -6 C-75.375 -3.625 -75.375 -3.625 -78 -1 C-80.59061014 -0.31892024 -83.09578571 0.05933584 -85.7578125 0.34765625 C-88.14676334 0.78256963 -88.14676334 0.78256963 -89.265625 2.88671875 C-91.11976211 8.22229416 -91.09610865 13.42569856 -91 19 C-90.01 18.505 -90.01 18.505 -89 18 C-88.7525 16.741875 -88.505 15.48375 -88.25 14.1875 C-87.51751175 10.84327084 -86.76275405 9.37771801 -83.875 7.5 C-82.92625 7.005 -81.9775 6.51 -81 6 C-81.12368342 12.06048751 -81.12368342 12.06048751 -83.625 14.7421875 C-84.264375 15.30164062 -84.90375 15.86109375 -85.5625 16.4375 C-88.24197963 18.84727192 -88.24197963 18.84727192 -89.53125 22.11328125 C-89.58609661 25.8634182 -89.09149291 27.86276064 -87 31 C-86.608125 29.88625 -86.21625 28.7725 -85.8125 27.625 C-84.57517033 24.68039334 -84.26393503 24.14117455 -81.3125 22.5625 C-80.549375 22.376875 -79.78625 22.19125 -79 22 C-79.42683632 23.27445454 -79.86697202 24.54445882 -80.3125 25.8125 C-80.55613281 26.52019531 -80.79976562 27.22789063 -81.05078125 27.95703125 C-82.06724258 30.14472373 -83.20820594 31.40896718 -85 33 C-82.36 33.33 -79.72 33.66 -77 34 C-77 34.99 -77 35.98 -77 37 C-81.33273814 37.92844389 -84.66726186 37.92844389 -89 37 C-89.144375 38.010625 -89.28875 39.02125 -89.4375 40.0625 C-89.95833333 43.70833333 -90.47916667 47.35416667 -91 51 C-88.59927045 48.11912454 -86.52708963 45.43595166 -85 42 C-84.34 42 -83.68 42 -83 42 C-82.6875 44.625 -82.6875 44.625 -83 48 C-84.64633943 50.0167658 -86.31267723 52.01739574 -88 54 C-88.75191978 56.63108504 -88.75191978 56.63108504 -88 59 C-86.68 59.99 -85.36 60.98 -84 62 C-84.33 58.7 -84.66 55.4 -85 52 C-83.68 52.66 -82.36 53.32 -81 54 C-80.71125 53.195625 -80.4225 52.39125 -80.125 51.5625 C-79 49 -79 49 -77 48 C-76.67 49.65 -76.34 51.3 -76 53 C-73.49701566 50.06171403 -72.53069061 47.82097239 -72 44 C-71.34 44 -70.68 44 -70 44 C-70.33 43.34 -70.66 42.68 -71 42 C-74.02934491 41.34227572 -74.02934491 41.34227572 -77 41 C-75 39 -75 39 -72.625 38.875 C-71.75875 38.91625 -70.8925 38.9575 -70 39 C-68.68 39 -67.36 39 -66 39 C-65.34 38.01 -64.68 37.02 -64 36 C-64.92232422 35.90912109 -64.92232422 35.90912109 -65.86328125 35.81640625 C-66.67152344 35.73261719 -67.47976562 35.64882813 -68.3125 35.5625 C-69.11300781 35.48128906 -69.91351563 35.40007813 -70.73828125 35.31640625 C-73 35 -73 35 -76 34 C-76 33.34 -76 32.68 -76 32 C-70.43621355 30.77596698 -67.93943587 31.30576225 -63 34 C-61.515 33.505 -61.515 33.505 -60 33 C-60.33 32.01 -60.66 31.02 -61 30 C-61.969375 29.525625 -62.93875 29.05125 -63.9375 28.5625 C-67.10211637 26.94789981 -67.87470028 26.26336918 -69 23 C-65.535 23.495 -65.535 23.495 -62 24 C-62.495 21.525 -62.495 21.525 -63 19 C-62.01 19 -61.02 19 -60 19 C-60.66 17.68 -61.32 16.36 -62 15 C-63.90584196 15.20376178 -63.90584196 15.20376178 -66 16 C-66.433125 16.639375 -66.86625 17.27875 -67.3125 17.9375 C-69.72851245 20.89040411 -72.36908691 21.17790647 -76 22 C-75.34 20.02 -74.68 18.04 -74 16 C-74.66 15.67 -75.32 15.34 -76 15 C-76.495 13.515 -76.495 13.515 -77 12 C-72.71 12.33 -68.42 12.66 -64 13 C-64.33 12.01 -64.66 11.02 -65 10 C-67.03417914 8.9415537 -67.03417914 8.9415537 -69.4375 8.125 C-73.81003173 6.33434415 -73.81003173 6.33434415 -75.5625 3.25 C-75.706875 2.5075 -75.85125 1.765 -76 1 C-73.69 1.66 -71.38 2.32 -69 3 C-69.495 -1.95 -69.495 -1.95 -70 -7 C-67 -5 -67 -5 -66.3125 -2.375 C-66.209375 -1.59125 -66.10625 -0.8075 -66 0 C-65.34 -0.33 -64.68 -0.66 -64 -1 C-63.83077158 -5.39993884 -63.95342744 -8.14762812 -66 -12 C-66.38749213 -14.32495277 -66.72982839 -16.65851268 -67 -19 C-69.97 -19 -72.94 -19 -76 -19 Z M-62 -18 C-61.67 -14.37 -61.34 -10.74 -61 -7 C-60.236875 -7.804375 -59.47375 -8.60875 -58.6875 -9.4375 C-56 -12 -56 -12 -53 -13 C-53.91918691 -8.71046108 -55.12828719 -6.68658497 -58.5625 -4.125 C-60.75584723 -2.41400714 -61.8362965 -1.51933523 -62.6796875 1.15625 C-63.00082598 3.60299364 -63.00082598 3.60299364 -63 7 C-62.401875 6.21625 -61.80375 5.4325 -61.1875 4.625 C-59 2 -59 2 -56 0 C-56.48578543 3.12290635 -56.9986012 5.99580359 -58 9 C-58.99 9.33 -59.98 9.66 -61 10 C-60.48118887 14.1724106 -59.28848726 16.25416821 -56.4375 19.3125 C-55.79683594 20.00988281 -55.15617188 20.70726562 -54.49609375 21.42578125 C-53.75552734 22.20501953 -53.75552734 22.20501953 -53 23 C-51.65786688 20.13939354 -51.65786688 20.13939354 -52.92578125 18.09765625 C-53.28027344 17.40542969 -53.63476562 16.71320312 -54 16 C-54.23046875 13.74609375 -54.23046875 13.74609375 -54.1875 11.4375 C-54.17783203 10.29087891 -54.17783203 10.29087891 -54.16796875 9.12109375 C-54 7 -54 7 -53 4 C-52.34 3.67 -51.68 3.34 -51 3 C-50.28966569 8.52967941 -49.69732824 13.49983036 -51 19 C-50.34 19 -49.68 19 -49 19 C-48.49528803 17.23050388 -47.99639315 15.45934777 -47.5 13.6875 C-47.08234375 12.20830078 -47.08234375 12.20830078 -46.65625 10.69921875 C-45.88187804 7.97712797 -45.88187804 7.97712797 -46 5 C-46.66 5 -47.32 5 -48 5 C-48.33 4.01 -48.66 3.02 -49 2 C-49.66 1.54625 -50.32 1.0925 -51 0.625 C-53.52195876 -1.4240915 -53.65862714 -2.84230107 -54 -6 C-51.00675737 -4.9024777 -50.15389099 -4.32317108 -48.75 -1.375 C-48.5025 -0.59125 -48.255 0.1925 -48 1 C-47.34 0.34 -46.68 -0.32 -46 -1 C-46.33 -1.639375 -46.66 -2.27875 -47 -2.9375 C-48.33056928 -7.01236841 -48.16659199 -10.75190425 -48 -15 C-49.9575985 -15.50286934 -51.91610377 -16.0022099 -53.875 -16.5 C-55.51082031 -16.91765625 -55.51082031 -16.91765625 -57.1796875 -17.34375 C-59.84205069 -18.07554418 -59.84205069 -18.07554418 -62 -18 Z M-116 -14 C-115 -12 -115 -12 -115 -12 Z M-45 -14 C-44.34 -11.03 -43.68 -8.06 -43 -5 C-41.02 -6.32 -39.04 -7.64 -37 -9 C-37.66 -6.03 -38.32 -3.06 -39 0 C-40.32 0.33 -41.64 0.66 -43 1 C-43.66 4.63 -44.32 8.26 -45 12 C-41.73489953 10.28798185 -41.73489953 10.28798185 -41.125 7 C-40 4 -40 4 -37.5625 2.6875 C-36.716875 2.460625 -35.87125 2.23375 -35 2 C-34.01 1.67 -33.02 1.34 -32 1 C-32.99 3.31 -33.98 5.62 -35 8 C-33.68 8.33 -32.36 8.66 -31 9 C-31 9.66 -31 10.32 -31 11 C-31.91523438 11.17015625 -32.83046875 11.3403125 -33.7734375 11.515625 C-35.55621094 11.87914062 -35.55621094 11.87914062 -37.375 12.25 C-38.55835938 12.48203125 -39.74171875 12.7140625 -40.9609375 12.953125 C-44.10186813 13.69286471 -44.10186813 13.69286471 -45.4140625 16.109375 C-45.60742188 16.73328125 -45.80078125 17.3571875 -46 18 C-43.69 17.01 -41.38 16.02 -39 15 C-40 18 -40 18 -43 20 C-42.01 20 -41.02 20 -40 20 C-40.6171875 22.8203125 -40.6171875 22.8203125 -42 26 C-44.8203125 27.6796875 -44.8203125 27.6796875 -48.125 28.875 C-49.22070312 29.28492188 -50.31640625 29.69484375 -51.4453125 30.1171875 C-52.70988281 30.55417969 -52.70988281 30.55417969 -54 31 C-53.39285156 31.14566406 -52.78570312 31.29132812 -52.16015625 31.44140625 C-48.34895126 32.42694389 -45.27822401 33.81451732 -42 36 C-41.67 35.34 -41.34 34.68 -41 34 C-40.34 35.65 -39.68 37.3 -39 39 C-37.515 38.505 -37.515 38.505 -36 38 C-36.309375 37.319375 -36.61875 36.63875 -36.9375 35.9375 C-38.13370649 32.63034088 -38.59005397 29.48454122 -39 26 C-36.33264727 28.48952921 -34.44253657 30.63408134 -33 34 C-31.3516367 32.24755753 -31.3516367 32.24755753 -30 30 C-30.21717352 27.79199472 -30.21717352 27.79199472 -31 26 C-32.32 25.67 -33.64 25.34 -35 25 C-35.33 22.69 -35.66 20.38 -36 18 C-33.00675737 19.0975223 -32.15389099 19.67682892 -30.75 22.625 C-30.5025 23.40875 -30.255 24.1925 -30 25 C-29.67 25 -29.34 25 -29 25 C-28.9498877 24.3294458 -28.89977539 23.6588916 -28.84814453 22.96801758 C-28.61534435 19.91548458 -28.37029582 16.86405323 -28.125 13.8125 C-28.04636719 12.75740234 -27.96773437 11.70230469 -27.88671875 10.61523438 C-27.80292969 9.59365234 -27.71914062 8.57207031 -27.6328125 7.51953125 C-27.52283936 6.11344604 -27.52283936 6.11344604 -27.41064453 4.67895508 C-26.98091089 1.87546684 -26.15128856 -0.41677069 -25 -3 C-24.34 -3 -23.68 -3 -23 -3 C-22.6991557 2.81632315 -23.22002521 5.78754728 -26 11 C-26.25284367 13.75146274 -26.25284367 13.75146274 -26 16 C-25.278125 15.236875 -24.55625 14.47375 -23.8125 13.6875 C-21.30209033 11.28866409 -19.03191698 9.64589779 -16 8 C-16.42683463 10.72107076 -16.73932111 12.59509047 -18 15 C-19.87890625 16.26171875 -19.87890625 16.26171875 -22.0625 17.375 C-25.27323242 19.0894632 -25.27323242 19.0894632 -26.74609375 22.30859375 C-27.0704105 25.08739803 -27.0704105 25.08739803 -27 29 C-22.545 28.505 -22.545 28.505 -18 28 C-18.9375 29.9375 -18.9375 29.9375 -21 32 C-23.09765625 32.3125 -23.09765625 32.3125 -25.5 32.4375 C-27.86446067 32.53022831 -27.86446067 32.53022831 -30 33 C-32.1386077 35.38987933 -32.1386077 35.38987933 -33 38 C-30.03 37.34 -27.06 36.68 -24 36 C-24.350625 36.763125 -24.70125 37.52625 -25.0625 38.3125 C-26.32360884 41.04759379 -26.32360884 41.04759379 -25 44 C-26.21236328 43.71382812 -26.21236328 43.71382812 -27.44921875 43.421875 C-34.07446001 41.79997211 -34.07446001 41.79997211 -40.25 43.875 C-41.11625 44.926875 -41.11625 44.926875 -42 46 C-41.67 46.66 -41.34 47.32 -41 48 C-39.02 47.01 -37.04 46.02 -35 45 C-36.0625 47.8125 -36.0625 47.8125 -38 51 C-40.33124929 52.00484883 -42.66443537 53.00522247 -45 54 C-46.43922796 56.18645606 -46.43922796 56.18645606 -46 59 C-44.86930974 61.79041908 -43.50594618 64.39529481 -42 67 C-40.67770811 64.35541621 -40.90322806 62.32238699 -40.9375 59.375 C-40.95103516 57.87066406 -40.95103516 57.87066406 -40.96484375 56.3359375 C-40.97644531 55.56507812 -40.98804688 54.79421875 -41 54 C-39.68 54.66 -38.36 55.32 -37 56 C-37.99 60.95 -37.99 60.95 -39 66 C-36.36 64.02 -33.72 62.04 -31 60 C-31.2475 59.0409375 -31.2475 59.0409375 -31.5 58.0625 C-32.15932515 54.02413348 -32.08003779 50.08192742 -32 46 C-30.515 46.495 -30.515 46.495 -29 47 C-27.62998571 50.1967 -28.1747596 52.69903842 -29 56 C-26.97034802 55.5748108 -26.97034802 55.5748108 -25 54 C-24.48174787 52.02416375 -23.97081012 50.04441748 -23.5625 48.04296875 C-22.73860716 45.05063572 -21.1679246 43.1679246 -19 41 C-18.34 41 -17.68 41 -17 41 C-18.85714286 49.57142857 -18.85714286 49.57142857 -22 53 C-18.83884224 51.63016497 -18.0072908 51.0109362 -16 48 C-13.375 46.8125 -13.375 46.8125 -11 46 C-11.4375 48.8125 -11.4375 48.8125 -13 52 C-15.20526565 53.08066803 -17.37154504 53.7036637 -19.73828125 54.3515625 C-22.49852097 55.14292656 -24.67320631 56.32761704 -27 58 C-27.33 58.66 -27.66 59.32 -28 60 C-27.44183594 59.69449219 -26.88367188 59.38898438 -26.30859375 59.07421875 C-23.88327513 57.9456864 -21.67997648 57.34890119 -19.0625 56.8125 C-18.22847656 56.63332031 -17.39445312 56.45414062 -16.53515625 56.26953125 C-12.18305596 55.80682721 -9.63235798 56.57842801 -6 59 C-6.19335938 58.46632813 -6.38671875 57.93265625 -6.5859375 57.3828125 C-8.07347724 53.12638691 -9.19251609 49.0873948 -9.875 44.625 C-10.50768116 40.72936581 -10.50768116 40.72936581 -13.5 38.1875 C-14.325 37.795625 -15.15 37.40375 -16 37 C-17.3125 34.3125 -17.3125 34.3125 -18 32 C-14.62496331 33.1858237 -12.35277269 34.27573689 -10 37 C-9.41231617 34.71471005 -9.41231617 34.71471005 -10 32 C-11.57263093 30.66789041 -11.57263093 30.66789041 -13.5 29.5 C-15.44140625 28.26953125 -15.44140625 28.26953125 -17 27 C-17.4375 24.1875 -17.4375 24.1875 -17 22 C-13.46399535 23.91135386 -11.21027154 25.62642766 -9 29 C-8.67 28.67 -8.34 28.34 -8 28 C-8.06478516 25.9590495 -8.06478516 25.9590495 -8.375 23.625 C-8.51035156 22.43777344 -8.51035156 22.43777344 -8.6484375 21.2265625 C-8.96339554 18.83581507 -8.96339554 18.83581507 -10 16 C-10.16954285 11.50711454 -9.78460857 7.41497996 -9 3 C-12.4096908 1.05363483 -15.82371188 -0.88489 -19.24169922 -2.81665039 C-20.96678901 -3.79369027 -22.68850934 -4.77667172 -24.41015625 -5.75976562 C-34.12526972 -11.66682442 -34.12526972 -11.66682442 -45 -14 Z M-121.48046875 -12.00390625 C-122.37378906 -11.52824219 -123.26710938 -11.05257813 -124.1875 -10.5625 C-125.08855469 -10.08941406 -125.98960938 -9.61632812 -126.91796875 -9.12890625 C-127.60503906 -8.75636719 -128.29210937 -8.38382813 -129 -8 C-128.65066406 -7.16855469 -128.30132812 -6.33710938 -127.94140625 -5.48046875 C-127.48636719 -4.39378906 -127.03132813 -3.30710937 -126.5625 -2.1875 C-126.11003906 -1.10855469 -125.65757813 -0.02960937 -125.19140625 1.08203125 C-124.39624987 3.0295126 -123.66520352 5.00438943 -123 7 C-122.01 6.01 -121.02 5.02 -120 4 C-120 5.98 -120 7.96 -120 10 C-118.35 9.34 -116.7 8.68 -115 8 C-116.10881164 14.28326597 -116.10881164 14.28326597 -118.65625 16.33203125 C-119.2853125 16.71746094 -119.914375 17.10289063 -120.5625 17.5 C-123.53557884 19.39980971 -123.89905457 19.65005584 -124.9375 23.25 C-125.0475819 29.62495501 -125.0475819 29.62495501 -125 36 C-124.34 36.33 -123.68 36.66 -123 37 C-122.89042969 36.30132812 -122.78085938 35.60265625 -122.66796875 34.8828125 C-122.50941406 33.97273438 -122.35085937 33.06265625 -122.1875 32.125 C-122.03667969 31.22007813 -121.88585937 30.31515625 -121.73046875 29.3828125 C-121 27 -121 27 -118 25 C-118.33 28.63 -118.66 32.26 -119 36 C-118.34 36 -117.68 36 -117 36 C-115.57773885 33.1554777 -115.62238263 30.33587776 -115.37890625 27.19140625 C-115 25 -115 25 -113 22 C-112.34 22 -111.68 22 -111 22 C-110.75 27.625 -110.75 27.625 -113 31 C-111.02 31 -109.04 31 -107 31 C-109.07357484 36.06873851 -111.27236232 38.26847601 -116 41 C-113.14600878 42.90266081 -110.77907204 43.88271039 -107.5625 45 C-104.2473965 46.15464829 -101.10425258 47.35614048 -98 49 C-99.12451727 46.0280615 -100.22293791 43.66559313 -102 41 C-102.25 37.9375 -102.25 37.9375 -102 35 C-101.34 34.34 -100.68 33.68 -100 33 C-97.32072659 37.01891012 -97.84398752 39.24161923 -98 44 C-97.01 44 -96.02 44 -95 44 C-93.77100654 37.93184478 -92.72439786 32.20104812 -93 26 C-94.83284443 24.87483915 -94.83284443 24.87483915 -97 24 C-98.485 24.495 -98.485 24.495 -100 25 C-103.1875 24.0625 -103.1875 24.0625 -106 23 C-106 22.34 -106 21.68 -106 21 C-102.42355152 19.7619986 -99.66305234 20.25073929 -96 21 C-96.90484792 19.84481082 -97.8244206 18.70114594 -98.75 17.5625 C-99.26046875 16.92441406 -99.7709375 16.28632812 -100.296875 15.62890625 C-102.93615731 13.10463853 -105.19081214 13.01839063 -108.75 12.9375 C-109.4925 12.958125 -110.235 12.97875 -111 13 C-111 12.34 -111 11.68 -111 11 C-109.02 11 -107.04 11 -105 11 C-105.33665915 8.51751876 -105.33665915 8.51751876 -107 6 C-109.27642429 5.0532829 -111.5074638 4.4357431 -113.90625 3.87109375 C-116 3 -116 3 -117.28125 0.91015625 C-117.5184375 0.27980469 -117.755625 -0.35054687 -118 -1 C-117.34 -1.66 -116.68 -2.32 -116 -3 C-116.78375 -3.2475 -117.5675 -3.495 -118.375 -3.75 C-121.32317108 -5.15389099 -121.9024777 -6.00675737 -123 -9 C-117.46153846 -8.38461538 -117.46153846 -8.38461538 -115.125 -6.4375 C-114.568125 -5.7259375 -114.568125 -5.7259375 -114 -5 C-114.77030122 -8.48809191 -114.77030122 -8.48809191 -116 -12 C-118.93355424 -13.33728333 -118.93355424 -13.33728333 -121.48046875 -12.00390625 Z M-62 -7 C-61 -4 -61 -4 -61 -4 Z M-156 9 C-157.22203125 10.05574219 -157.22203125 10.05574219 -158.46875 11.1328125 C-160.32216173 12.74475862 -162.16617624 14.36584759 -164 16 C-163.67 16.99 -163.34 17.98 -163 19 C-162.34 19 -161.68 19 -161 19 C-160.01 22.3 -159.02 25.6 -158 29 C-157.67 29 -157.34 29 -157 29 C-156.87882812 28.43410156 -156.75765625 27.86820313 -156.6328125 27.28515625 C-156.46523437 26.55167969 -156.29765625 25.81820312 -156.125 25.0625 C-155.88136719 23.96615234 -155.88136719 23.96615234 -155.6328125 22.84765625 C-155 21 -155 21 -153 20 C-152.75 27.625 -152.75 27.625 -155 31 C-154.68735902 34.96011914 -153.22882249 37.74963387 -151 41 C-150.67 41 -150.34 41 -150 41 C-149.773125 39.7625 -149.54625 38.525 -149.3125 37.25 C-148.2994906 33.07965475 -146.68040867 31.32446864 -143 29 C-143.78752541 34.94757999 -144.46805748 38.70125486 -148.75390625 43.1015625 C-151.88455132 47.87113461 -153.56464046 55.80721483 -152.5703125 61.4296875 C-152.38210937 61.94789062 -152.19390625 62.46609375 -152 63 C-151.3503125 61.2365625 -151.3503125 61.2365625 -150.6875 59.4375 C-150.41035156 58.71046875 -150.13320312 57.9834375 -149.84765625 57.234375 C-149.31669822 55.83479899 -148.80111386 54.42918553 -148.30859375 53.015625 C-146.71465578 48.75297947 -145.1362819 46.90045384 -141 45 C-142.25805377 49.50802601 -143.90407165 52.4912812 -147 56 C-146.01 56 -145.02 56 -144 56 C-144.125 58.75 -144.125 58.75 -145 62 C-148.0625 64.375 -148.0625 64.375 -151 66 C-148.4345406 68.5654594 -146.52313332 68.54046087 -143 69 C-143.33 67.68 -143.66 66.36 -144 65 C-136.375 66.75 -136.375 66.75 -133 69 C-133.309375 68.13375 -133.61875 67.2675 -133.9375 66.375 C-135.24757302 62.21359158 -136 58.36367128 -136 54 C-133.5 55.9375 -133.5 55.9375 -131 59 C-130.72070845 61.38023096 -130.80389509 63.52985896 -131.01953125 65.9140625 C-131.18722705 68.31161871 -131.18722705 68.31161871 -129 71 C-128.75765625 70.44570312 -128.5153125 69.89140625 -128.265625 69.3203125 C-127.93046875 68.59585938 -127.5953125 67.87140625 -127.25 67.125 C-126.76273438 66.04605469 -126.76273438 66.04605469 -126.265625 64.9453125 C-124.78070314 62.6629326 -123.49584592 61.99624102 -121 61 C-122.36418685 69.40051903 -122.36418685 69.40051903 -125.1875 72.0625 C-127.19294875 73.79085622 -127.19294875 73.79085622 -127.10546875 75.90625 C-126.69892979 79.70980099 -126.17149324 81.74276014 -124 85 C-123.5875 84.05125 -123.175 83.1025 -122.75 82.125 C-120.9959869 78.99283376 -120.29148243 78.13499394 -117 77 C-117.25561323 79.3431213 -117.59270772 81.67843403 -118 84 C-118.99 84.495 -118.99 84.495 -120 85 C-118.35 85.66 -116.7 86.32 -115 87 C-115.66 87.66 -116.32 88.32 -117 89 C-119.33944736 88.71269945 -121.6739143 88.38063221 -124 88 C-125.78126089 89.78126089 -125.42034316 92.39462565 -125.625 94.8125 C-125.72039062 95.87082031 -125.81578125 96.92914063 -125.9140625 98.01953125 C-125.98971418 100.64326922 -125.80235938 102.52705654 -125 105 C-124.34 105 -123.68 105 -123 105 C-123 105.66 -123 106.32 -123 107 C-122.34 106.67 -121.68 106.34 -121 106 C-121.2784375 104.88625 -121.2784375 104.88625 -121.5625 103.75 C-121.99203108 101.05009037 -121.85122974 99.55368923 -121 97 C-120.01 97.66 -119.02 98.32 -118 99 C-118.33 101.97 -118.66 104.94 -119 108 C-116.69 108.33 -114.38 108.66 -112 109 C-111.98582031 108.39671875 -111.97164062 107.7934375 -111.95703125 107.171875 C-111.5626072 100.5626072 -111.5626072 100.5626072 -108.4375 97.4375 C-107.633125 96.963125 -106.82875 96.48875 -106 96 C-106 99.3 -106 102.6 -106 106 C-107.98 106.99 -107.98 106.99 -110 108 C-108.47242978 111.05514045 -106.10870658 111.15773597 -102.9375 112.25 C-97.13815635 114.38962569 -92.63050163 116.92907561 -88 121 C-87.34 120.67 -86.68 120.34 -86 120 C-86.99 119.13375 -87.98 118.2675 -89 117.375 C-91.53414634 114.87654587 -91.96317186 114.33145329 -92.375 110.625 C-92.25125 109.75875 -92.1275 108.8925 -92 108 C-89.53199953 109.15173355 -87.95216435 110.04783565 -86 112 C-85.34 109.69 -84.68 107.38 -84 105 C-84.928125 104.443125 -85.85625 103.88625 -86.8125 103.3125 C-89.9419407 101.04212145 -91.29754051 99.40491897 -93 96 C-95.06687702 98.93107573 -95.06687702 98.93107573 -96.4375 102.125 C-98 105 -98 105 -101 106 C-101.4375 103.9375 -101.4375 103.9375 -101 101 C-99.546875 99.390625 -99.546875 99.390625 -97.6875 97.6875 C-93.80200457 94.11661959 -92.49735474 91.02054238 -91 86 C-92.98 86.33 -94.96 86.66 -97 87 C-97 87.66 -97 88.32 -97 89 C-96.34 89 -95.68 89 -95 89 C-95 89.99 -95 90.98 -95 92 C-96.155 91.731875 -97.31 91.46375 -98.5 91.1875 C-103.18179876 90.55884858 -105.38707833 92.19416473 -109.1015625 94.8515625 C-111.76573543 96.46322267 -113.96690236 96.37913721 -117 96 C-114.19195732 93.03595495 -111.81684226 90.55500981 -108 89 C-108.474375 88.54625 -108.94875 88.0925 -109.4375 87.625 C-111 86 -111 86 -112 84 C-107.64464931 85.16142685 -105.35380297 86.07699505 -103 90 C-103 89.34 -103 88.68 -103 88 C-102.1646875 87.5978125 -102.1646875 87.5978125 -101.3125 87.1875 C-98.95800255 86.05584824 -98.95800255 86.05584824 -96.875 84.4375 C-92.72406272 82.36203136 -88.58590757 82.25823557 -84 82 C-86.51070754 78.33112448 -86.51070754 78.33112448 -90.25 76.1875 C-91.11625 76.0946875 -91.11625 76.0946875 -92 76 C-92 76.66 -92 77.32 -92 78 C-96.1205746 79.99785435 -99.45194365 80.17835515 -104 80 C-104 79.34 -104 78.68 -104 78 C-101.33333333 76.66666667 -98.66666667 75.33333333 -96 74 C-100.58896093 72.81019641 -100.58896093 72.81019641 -105 74 C-105.45375 74.969375 -105.9075 75.93875 -106.375 76.9375 C-108 80 -108 80 -111.1875 81.375 C-112.5796875 81.684375 -112.5796875 81.684375 -114 82 C-112.15083921 77.93184627 -110.33557632 74.9905167 -107 72 C-107.70125 72.103125 -108.4025 72.20625 -109.125 72.3125 C-113.35389837 71.85283713 -114.9438115 69.91727084 -118 67 C-118.33 66.34 -118.66 65.68 -119 65 C-113.80408388 65.44033187 -110.33664919 65.88303339 -106 69 C-106.99 65.37 -107.98 61.74 -109 58 C-108.21625 58.495 -107.4325 58.99 -106.625 59.5 C-104.21447673 61.16537965 -104.21447673 61.16537965 -102 61 C-102 63.64 -102 66.28 -102 69 C-101.21625 69.2475 -100.4325 69.495 -99.625 69.75 C-85.47580645 74.62903226 -85.47580645 74.62903226 -81 80 C-80.34 79.67 -79.68 79.34 -79 79 C-82.81219712 72.89543565 -82.81219712 72.89543565 -88 68 C-90.66040993 67.78145132 -93.13609987 67.87022218 -95.79296875 68.1171875 C-96.52128906 68.07851562 -97.24960938 68.03984375 -98 68 C-98.66 67.01 -99.32 66.02 -100 65 C-97.36 65 -94.72 65 -92 65 C-98.35861389 55.29610803 -98.35861389 55.29610803 -108 50 C-110.34287418 52.67247634 -110.34287418 52.67247634 -111 56 C-115.455 56.495 -115.455 56.495 -120 57 C-119.7215625 55.8553125 -119.7215625 55.8553125 -119.4375 54.6875 C-118.77180827 51.91032625 -118.77180827 51.91032625 -120 49 C-117.03 49 -114.06 49 -111 49 C-113.3129482 46.6870518 -114.47904875 46.50419025 -117.625 45.875 C-118.85089844 45.62363281 -118.85089844 45.62363281 -120.1015625 45.3671875 C-120.72804687 45.24601562 -121.35453125 45.12484375 -122 45 C-122.309375 46.258125 -122.61875 47.51625 -122.9375 48.8125 C-123.53978048 51.26177394 -124.20088641 53.60265923 -125 56 C-125.99 55.67 -126.98 55.34 -128 55 C-127.5317879 50.22423661 -126.75668002 46.95523655 -124 43 C-128.04802366 42.61139475 -128.04802366 42.61139475 -130.875 45.0625 C-134 47 -134 47 -137.375 46.75 C-138.24125 46.5025 -139.1075 46.255 -140 46 C-140 45.34 -140 44.68 -140 44 C-137.33333333 42.66666667 -134.66666667 41.33333333 -132 40 C-133.27875 39.7525 -134.5575 39.505 -135.875 39.25 C-139.79173989 38.29503515 -139.79173989 38.29503515 -141.5 35.875 C-141.665 35.25625 -141.83 34.6375 -142 34 C-138.64566891 34.94933899 -135.30753495 35.89748835 -132 37 C-133.37287342 33.30123909 -135.06355453 30.0485524 -137.125 26.6875 C-137.66382813 25.80449219 -138.20265625 24.92148437 -138.7578125 24.01171875 C-139.16773438 23.34785156 -139.57765625 22.68398438 -140 22 C-140.928125 22.515625 -141.85625 23.03125 -142.8125 23.5625 C-146 25 -146 25 -149 24 C-148 21 -148 21 -146 19 C-146.78375 18.608125 -147.5675 18.21625 -148.375 17.8125 C-151.35156418 15.75725331 -151.98823563 14.40320742 -153 11 C-148.52040582 12.14185734 -144.85477249 13.43015167 -141 16 C-141.33 15.13375 -141.66 14.2675 -142 13.375 C-143.01289665 9.95647381 -143.38423553 7.53496692 -143 4 C-141.5 1.625 -141.5 1.625 -140 0 C-138.19149979 3.61700042 -138.56551532 8.31033734 -139.5625 12.1875 C-140.15783239 14.65387704 -139.6074872 16.57005121 -139 19 C-136.81509993 16.32357511 -136.81509993 16.32357511 -137 14 C-136.01 14 -135.02 14 -134 14 C-134 15.98 -134 17.96 -134 20 C-133.67 19.34 -133.34 18.68 -133 18 C-131.515 18.99 -131.515 18.99 -130 20 C-129.3125 23.625 -129.3125 23.625 -129 27 C-126.90284215 23.85426323 -126.47995441 21.98543749 -125.875 18.3125 C-125.70742187 17.31863281 -125.53984375 16.32476562 -125.3671875 15.30078125 C-125.18542969 14.16189453 -125.18542969 14.16189453 -125 13 C-128.91063224 11.52952664 -128.91063224 11.52952664 -133 11 C-133.33 9.02 -133.66 7.04 -134 5 C-131.36 5.66 -128.72 6.32 -126 7 C-126 6.34 -126 5.68 -126 5 C-126.66 5 -127.32 5 -128 5 C-128.268125 4.29875 -128.53625 3.5975 -128.8125 2.875 C-130.0681449 -0.1649824 -131.50235123 -3.0727774 -133 -6 C-140.82113762 -6 -150.52211442 4.2315996 -156 9 Z M-116 -2 C-113.32357511 0.18490007 -113.32357511 0.18490007 -111 0 C-111 -0.66 -111 -1.32 -111 -2 C-112.65 -2 -114.3 -2 -116 -2 Z M-69 3 C-68.67 3.99 -68.34 4.98 -68 6 C-67.01 6.33 -66.02 6.66 -65 7 C-65.33 5.68 -65.66 4.36 -66 3 C-66.99 3 -67.98 3 -69 3 Z M-5 7 C-5 12.28 -5 17.56 -5 23 C-1.04 20.525 -1.04 20.525 3 18 C1.37105413 22.0244545 -0.29082399 24.40092402 -3.6875 27 C-6.75175418 29.4059238 -6.75175418 29.4059238 -7.4375 33.375 C-7.293125 34.24125 -7.14875 35.1075 -7 36 C-4.03 33.525 -4.03 33.525 -1 31 C-0.6875 34.25 -0.6875 34.25 -1 38 C-3.5 40.3125 -3.5 40.3125 -6 42 C-6 42.66 -6 43.32 -6 44 C-6.99 44.495 -6.99 44.495 -8 45 C-7.01 47.64 -6.02 50.28 -5 53 C-4.67 53 -4.34 53 -4 53 C-3.9175 51.88625 -3.835 50.7725 -3.75 49.625 C-3 46 -3 46 -0.9375 44.5625 C-0.298125 44.376875 0.34125 44.19125 1 44 C1.66 44.66 2.32 45.32 3 46 C3.01417969 45.23816406 3.02835938 44.47632813 3.04296875 43.69140625 C3.45176771 34.84146129 5.42689224 28.16949588 12 22 C6.39476999 16.92484204 0.76774721 11.89004655 -5 7 Z M-168 20 C-190.56064477 48.51414825 -199.39159327 80.72378246 -195.69970703 116.94628906 C-194.91782672 122.10769512 -193.61626231 127.04222374 -192 132 C-191.79101074 132.66950684 -191.58202148 133.33901367 -191.36669922 134.02880859 C-184.54600501 155.43097192 -173.10816467 173.16119498 -153 184 C-141.10122759 189.98597529 -128.39054551 192.96460176 -115.23828125 189.76171875 C-109.93679652 187.95754855 -104.33453595 184.5349689 -101 180 C-99.52499672 172.9632009 -100.05290229 165.85666408 -100.390625 158.71289062 C-100.54813715 151.27536393 -98.83748115 146.33047045 -95 140 C-94.401875 138.96875 -93.80375 137.9375 -93.1875 136.875 C-92.795625 136.25625 -92.40375 135.6375 -92 135 C-92.66 135 -93.32 135 -94 135 C-93.01 132.36 -92.02 129.72 -91 127 C-96.43307798 122.01967852 -102.44746812 117.07893313 -110 116 C-110.66 116.66 -111.32 117.32 -112 118 C-111.195625 118.7425 -110.39125 119.485 -109.5625 120.25 C-107.23011409 122.75304829 -106.36465606 123.7180955 -106 127 C-109.53600465 125.08864614 -111.78972846 123.37357234 -114 120 C-114.12375 120.928125 -114.2475 121.85625 -114.375 122.8125 C-115 126 -115 126 -117 129 C-119.125 129.6875 -119.125 129.6875 -121 130 C-121 127.69 -121 125.38 -121 123 C-122.98 123.99 -124.96 124.98 -127 126 C-126.505 124.02 -126.505 124.02 -126 122 C-127.75280733 122.42611351 -129.50217435 122.86639267 -131.25 123.3125 C-132.22453125 123.55613281 -133.1990625 123.79976563 -134.203125 124.05078125 C-138.23191107 125.41809272 -140.38952568 126.88522081 -142.4375 130.625 C-144 133 -144 133 -146.6875 133.8125 C-147.450625 133.874375 -148.21375 133.93625 -149 134 C-147.8141763 130.62496331 -146.72426311 128.35277269 -144 126 C-145.04577112 124.76644994 -145.04577112 124.76644994 -147.3125 124.5625 C-150.33041678 124.72939895 -150.33041678 124.72939895 -152.125 127.9375 C-152.74375 128.948125 -153.3625 129.95875 -154 131 C-156.92824652 131.97608217 -158.95613276 132.08226668 -162 132 C-159.89484661 128.27549784 -158.75732776 126.3204079 -154.75 124.625 C-153.38875 124.315625 -153.38875 124.315625 -152 124 C-152.5775 123.855625 -153.155 123.71125 -153.75 123.5625 C-155.83333333 123.04166667 -157.91666667 122.52083333 -160 122 C-160 121.34 -160 120.68 -160 120 C-158.02 119.01 -158.02 119.01 -156 118 C-158.31 115.69 -160.62 113.38 -163 111 C-165.35785318 111.89335797 -165.35785318 111.89335797 -166.125 115.0625 C-166.558125 116.5165625 -166.558125 116.5165625 -167 118 C-170.465 118.495 -170.465 118.495 -174 119 C-173.67 116.69 -173.34 114.38 -173 112 C-175.64 112.33 -178.28 112.66 -181 113 C-181 112.34 -181 111.68 -181 111 C-178.11584117 109.55792059 -175.58278472 109.90605113 -172.375 109.9375 C-171.18648437 109.94652344 -169.99796875 109.95554687 -168.7734375 109.96484375 C-167.85820312 109.97644531 -166.94296875 109.98804688 -166 110 C-169.41440889 106.85404586 -171.99547306 106.59856693 -176.5625 106.4375 C-182.68791341 106.20805773 -182.68791341 106.20805773 -186 104 C-186.33 103.01 -186.66 102.02 -187 101 C-181.69668544 100.68180113 -178.61938725 101.42173735 -174 104 C-173.34 104 -172.68 104 -172 104 C-172.33 101.36 -172.66 98.72 -173 96 C-171.0625 96.5625 -171.0625 96.5625 -169 98 C-168.855625 99.11375 -168.71125 100.2275 -168.5625 101.375 C-168.35260958 105.16108569 -168.35260958 105.16108569 -165.4375 107.4375 C-164.633125 107.953125 -163.82875 108.46875 -163 109 C-162.34 108.67 -161.68 108.34 -161 108 C-163.5142261 100.37924013 -166.8714373 92.81709782 -174.21875 88.78125 C-174.8065625 88.5234375 -175.394375 88.265625 -176 88 C-176.66 88.804375 -177.32 89.60875 -178 90.4375 C-181.87979228 93.75148924 -184.00014825 93.74577025 -189 94 C-188.0625 91.625 -188.0625 91.625 -186 89 C-183.0518161 87.95977199 -180.09069405 87.43412264 -177 87 C-177 86.34 -177 85.68 -177 85 C-177.88751953 84.87044922 -177.88751953 84.87044922 -178.79296875 84.73828125 C-184.33840956 83.75222407 -187.38908358 82.5957118 -191 78 C-191.68947116 76.67831481 -192.36098443 75.34680412 -193 74 C-191.56068883 74.45261358 -190.12361001 74.91232979 -188.6875 75.375 C-187.48673828 75.75785156 -187.48673828 75.75785156 -186.26171875 76.1484375 C-184 77 -184 77 -181 79 C-178.84725052 78.69159401 -178.84725052 78.69159401 -177 78 C-174.16625119 81.20336822 -173.4794463 83.78087253 -173 88 C-171.515 88.495 -171.515 88.495 -170 89 C-170 86.69 -170 84.38 -170 82 C-169.34 82 -168.68 82 -168 82 C-166.8175835 84.364833 -166.86419413 85.99037838 -166.75 88.625 C-166.28004522 94.10515065 -164.27679491 97.67124511 -161 102 C-160.19560492 99.25559326 -160.0152718 97.90836922 -160.5 95 C-160.97289625 92.16262253 -160.92347119 90.66780567 -160 88 C-159.34 88 -158.68 88 -158 88 C-157.67 88.99 -157.34 89.98 -157 91 C-154.45893991 88.79038253 -153.69378511 87.26011642 -153 84 C-155.18646304 83.2054739 -157.37422221 82.4145142 -159.5625 81.625 C-160.78066406 81.18414062 -161.99882812 80.74328125 -163.25390625 80.2890625 C-165.74081477 79.43329627 -168.25468372 78.65205163 -170.7890625 77.94921875 C-174.40328925 76.88077945 -176.34315554 75.65684446 -179 73 C-180.3125 70.25 -180.3125 70.25 -181 68 C-172.04140408 70.18222208 -172.04140408 70.18222208 -169.4375 74.1875 C-168.963125 75.115625 -168.48875 76.04375 -168 77 C-167.67 76.01 -167.34 75.02 -167 74 C-168.15661157 71.79192337 -169.22677434 69.77322566 -171 68 C-171.36760731 65.67182036 -171.70241581 63.3381615 -172 61 C-171.21625 61.825 -170.4325 62.65 -169.625 63.5 C-167.36278736 66.22988506 -167.36278736 66.22988506 -165 66 C-163.00214565 70.1205746 -162.82164485 73.45194365 -163 78 C-160.03 78.495 -160.03 78.495 -157 79 C-157.99 76.69 -158.98 74.38 -160 72 C-157.625 72.25 -157.625 72.25 -155 73 C-153.6875 75.0625 -153.6875 75.0625 -153 77 C-153.580913 73.04695786 -154.78798491 70.27029321 -156.875 66.875 C-157.38804687 66.02679688 -157.90109375 65.17859375 -158.4296875 64.3046875 C-159.82767731 62.25291141 -161.0987835 60.58954167 -163 59 C-163.66 59 -164.32 59 -165 59 C-165.33 58.01 -165.66 57.02 -166 56 C-166.53625 56.144375 -167.0725 56.28875 -167.625 56.4375 C-175.28415961 58.25151149 -175.28415961 58.25151149 -178.3125 57.1875 C-180 56 -180 56 -181 54 C-175.555 53.505 -175.555 53.505 -170 53 C-172.7834551 50.02042876 -172.7834551 50.02042876 -175.625 48.25 C-178.72192925 45.31606703 -178.75974095 43.16449021 -179 39 C-178.38125 39.495 -177.7625 39.99 -177.125 40.5 C-175.16119096 42.19222773 -175.16119096 42.19222773 -173 42 C-172.34 43.98 -171.68 45.96 -171 48 C-170.67 48 -170.34 48 -170 48 C-170.33 44.04 -170.66 40.08 -171 36 C-170.34 35.67 -169.68 35.34 -169 35 C-168.25983299 40.70985978 -167.89530662 46.24186425 -168 52 C-167.67 52 -167.34 52 -167 52 C-166.731875 50.72125 -166.46375 49.4425 -166.1875 48.125 C-165.42809901 44.50324145 -165.29922197 44.19948132 -162 42 C-162.96355353 51.41002278 -162.96355353 51.41002278 -164 56 C-162.68 56.99 -161.36 57.98 -160 59 C-160.495 54.545 -160.495 54.545 -161 50 C-158.66475218 52.25740623 -156.81294927 54.2805761 -155 57 C-154.34 54.03 -153.68 51.06 -153 48 C-153.94875 47.29875 -154.8975 46.5975 -155.875 45.875 C-158.99854626 43.30396782 -160.07381296 40.98260427 -161 37 C-159.02 37.66 -157.04 38.32 -155 39 C-155.6954344 35.99615946 -155.6954344 35.99615946 -157 33 C-159.94457256 31.52771372 -161.9335553 32.18228141 -165 33 C-165.66 32.67 -166.32 32.34 -167 32 C-167 31.34 -167 30.68 -167 30 C-165 28.375 -165 28.375 -163 27 C-164.52206009 24.37098712 -165.84365964 22.15634036 -168 20 Z M-135 20 C-136.06059497 22.56531141 -136.06059497 22.56531141 -136 26 C-134.0854756 29.77915892 -131.87964165 34.06017918 -128 36 C-128.97130267 31.30238707 -128.97130267 31.30238707 -131.5625 27.4375 C-133.72911388 25.27088612 -133.67143262 22.95710642 -134 20 C-134.33 20 -134.66 20 -135 20 Z M-47.625 21.5 C-48.07875 21.995 -48.5325 22.49 -49 23 C-48.67 23.66 -48.34 24.32 -48 25 C-46.68 23.35 -45.36 21.7 -44 20 C-46.12364481 19.77390663 -46.12364481 19.77390663 -47.625 21.5 Z M-58 21 C-58 23.64 -58 26.28 -58 29 C-57.34 28.67 -56.68 28.34 -56 28 C-56.33 25.69 -56.66 23.38 -57 21 C-57.33 21 -57.66 21 -58 21 Z M13 26 C12.38125 26.928125 11.7625 27.85625 11.125 28.8125 C9 32 9 32 7.25 33.5625 C5.72746926 35.02209709 5.72746926 35.02209709 5.8125 37.6875 C5.874375 38.450625 5.93625 39.21375 6 40 C6.680625 39.2575 6.680625 39.2575 7.375 38.5 C9 37 9 37 11 37 C11.2165625 38.670625 11.2165625 38.670625 11.4375 40.375 C11.78372035 43.82142047 11.78372035 43.82142047 13 46 C13.7425 45.360625 14.485 44.72125 15.25 44.0625 C17.7111121 42.21666593 19.03466926 41.43930826 22 41 C21.125 43.75 21.125 43.75 19 47 C16.56081111 48.22604733 14.09745049 49.09374705 11.51953125 49.98828125 C7.98631935 51.40704386 5.74693593 53.39763965 3 56 C3.66 56.33 4.32 56.66 5 57 C5.99 56.67 6.98 56.34 8 56 C9.89470816 55.9314505 11.7916834 55.91519628 13.6875 55.9375 C14.68136719 55.94652344 15.67523438 55.95554687 16.69921875 55.96484375 C17.83810547 55.98224609 17.83810547 55.98224609 19 56 C17.20762147 58.41581454 15.85709272 59.84838432 12.8359375 60.3828125 C11.26658161 60.50038639 9.69420142 60.58380873 8.12109375 60.62890625 C5.91638982 60.80525587 5.91638982 60.80525587 4.546875 62.453125 C2.4533954 64.5466046 0.69997489 64.70000424 -2.1875 65.1875 C-3.08855469 65.34605469 -3.98960937 65.50460938 -4.91796875 65.66796875 C-5.60503906 65.77753906 -6.29210937 65.88710937 -7 66 C-7 66.99 -7 67.98 -7 69 C-6.2575 68.5359375 -6.2575 68.5359375 -5.5 68.0625 C-2.02013219 66.58355618 1.24028509 66.37597149 5 66 C5 66.66 5 67.32 5 68 C5.66 68 6.32 68 7 68 C7 70.64 7 73.28 7 76 C7.66 75.67 8.32 75.34 9 75 C9.35561725 72.44765849 9.44379753 69.92131348 9.55859375 67.34765625 C9.77708984 66.18556641 9.77708984 66.18556641 10 65 C10.99 64.34 11.98 63.68 13 63 C13.495 66.465 13.495 66.465 14 70 C16.19386899 67.88448347 18.12353118 65.83263518 19.9375 63.375 C22.17151953 60.80249266 23.78176353 59.98335003 27 59 C26.67 61.31 26.34 63.62 26 66 C24.515 66.495 24.515 66.495 23 67 C25.66559313 68.77706209 28.0280615 69.87548273 31 71 C31 71.66 31 72.32 31 73 C29.35492782 73.19406478 27.70890406 73.38007935 26.0625 73.5625 C25.14597656 73.66691406 24.22945313 73.77132812 23.28515625 73.87890625 C22.53105469 73.91886719 21.77695313 73.95882812 21 74 C20.67 73.67 20.34 73.34 20 73 C17.04182893 72.74994614 17.04182893 72.74994614 14 73 C13.01 73.99 13.01 73.99 12 75 C14.31 75 16.62 75 19 75 C18.34 75.99 17.68 76.98 17 78 C14.9765625 78.15234375 14.9765625 78.15234375 12.625 77.9375 C8.75020161 77.77634136 8.75020161 77.77634136 5.4375 79.875 C3.81323021 81.84850331 3.81323021 81.84850331 4 84 C5.32 84 6.64 84 8 84 C8.33 84.66 8.66 85.32 9 86 C9.33 84.68 9.66 83.36 10 82 C10.66 82 11.32 82 12 82 C12.495 84.97 12.495 84.97 13 88 C13.66 87.01 14.32 86.02 15 85 C18.55555556 81.22222222 18.55555556 81.22222222 21 80 C19.125 87.75 19.125 87.75 18 90 C19.32 89.67 20.64 89.34 22 89 C21.67 91.31 21.34 93.62 21 96 C21.99 95.67 22.98 95.34 24 95 C24.09796875 94.31292969 24.1959375 93.62585938 24.296875 92.91796875 C24.44640625 92.01691406 24.5959375 91.11585937 24.75 90.1875 C24.88921875 89.29417969 25.0284375 88.40085938 25.171875 87.48046875 C26.18665049 84.44092897 27.27082929 83.60212429 30 82 C30.99 81.67 31.98 81.34 33 81 C32.67 82.98 32.34 84.96 32 87 C33.32 86.67 34.64 86.34 36 86 C34.39700522 91.17890621 32.0846627 92.79876821 27.3125 95.375 C25.54994776 96.26656339 23.7815509 97.14703336 22 98 C24.60823733 99.30411867 27.12665692 99.54026511 30 100 C31.33737094 100.31674575 32.67288808 100.64270064 34 101 C34 101.99 34 102.98 34 104 C25.87610619 104.63716814 25.87610619 104.63716814 22.25 102 C21.5075 101.34 20.765 100.68 20 100 C17.2895393 99.66407492 17.2895393 99.66407492 15 100 C15.66 100.33 16.32 100.66 17 101 C17.72693904 102.97888961 18.39816251 104.97954558 19 107 C17.9171875 106.7215625 17.9171875 106.7215625 16.8125 106.4375 C13.84314577 105.97560045 11.89664002 106.31395368 9 107 C8.01 107 7.02 107 6 107 C5.34 105.68 4.68 104.36 4 103 C2.35 103.66 0.7 104.32 -1 105 C0.98 107.31 2.96 109.62 5 112 C2.36 111.67 -0.28 111.34 -3 111 C-3.99 112.32 -4.98 113.64 -6 115 C-8 112 -8 112 -8 110 C-13.32170494 109.70437633 -13.32170494 109.70437633 -18 112 C-17.01 112.99 -16.02 113.98 -15 115 C-15.495 116.485 -15.495 116.485 -16 118 C-17.65 117.67 -19.3 117.34 -21 117 C-21 118.98 -21 120.96 -21 123 C-25.68809321 120.85687168 -27.52125256 117.97058489 -29.984375 113.64453125 C-30.31953125 113.10183594 -30.6546875 112.55914062 -31 112 C-31.33 112 -31.66 112 -32 112 C-32.33 114.64 -32.66 117.28 -33 120 C-33.99 119.67 -34.98 119.34 -36 119 C-36.26218749 115.85375007 -36.24754367 114.38162983 -34.5 111.6875 C-34.005 111.130625 -33.51 110.57375 -33 110 C-40.36072234 110.42465706 -46.32137824 112.98348917 -53 116 C-52.21109375 116.61746094 -51.4221875 117.23492187 -50.609375 117.87109375 C-47.21168463 120.64316149 -45.38638022 122.84085935 -44 127 C-47.375 126.375 -47.375 126.375 -51 125 C-52.1875 121.9375 -52.1875 121.9375 -53 119 C-54.77265035 118.02681684 -54.77265035 118.02681684 -57 118 C-64.13841071 120.94659786 -70.76468694 126.38531643 -76 132 C-76 132.66 -76 133.32 -76 134 C-77.485 134.495 -77.485 134.495 -79 135 C-79.0825 135.78375 -79.165 136.5675 -79.25 137.375 C-80.08020818 141.38767285 -81.46873244 144.87105231 -83.0625 148.6328125 C-83.9007787 150.74946621 -84.50914845 152.78094193 -85 155 C-84.34 155 -83.68 155 -83 155 C-83.061875 156.03125 -83.12375 157.0625 -83.1875 158.125 C-83.22233544 164.55794379 -81.46876321 170.77524163 -80 177 C-79.01 176.01 -79.01 176.01 -78 175 C-77.31035156 175.45890625 -76.62070313 175.9178125 -75.91015625 176.390625 C-57.86615299 188.17244331 -39.69543202 190.6908925 -18.57885742 186.41040039 C-2.5815677 182.78283741 12.6669079 174.06400602 21.52026367 160.06396484 C37.55974234 133.7227072 42.78525323 101.71604855 35.78344727 71.73461914 C31.65038555 55.20773293 25.54134883 38.84344972 14 26 C13.67 26 13.34 26 13 26 Z M-89 31 C-88 33 -88 33 -88 33 Z M-58 35 C-58 35.99 -58 36.98 -58 38 C-56.02 37.67 -54.04 37.34 -52 37 C-52.33 36.34 -52.66 35.68 -53 35 C-54.65 35 -56.3 35 -58 35 Z M-120 36 C-119 38 -119 38 -119 38 Z M-51 36 C-51.4125 36.61875 -51.825 37.2375 -52.25 37.875 C-54.05573879 40.06768281 -55.4090534 40.92788417 -58 42 C-57.01 42 -56.02 42 -55 42 C-56.5592687 45.29178948 -57.39723858 46.74550073 -60.8125 48.1875 C-61.864375 48.455625 -62.91625 48.72375 -64 49 C-67.2552429 49.77851979 -67.2552429 49.77851979 -70 51 C-70.33 52.32 -70.66 53.64 -71 55 C-67.04 53.515 -67.04 53.515 -63 52 C-64.75010093 55.80904319 -65.65552338 56.85745795 -69.625 58.5 C-70.73875 58.995 -71.8525 59.49 -73 60 C-74.05167527 62.57732914 -74.05167527 62.57732914 -74 65 C-73.34 65 -72.68 65 -72 65 C-71.236875 64.21625 -70.47375 63.4325 -69.6875 62.625 C-67.10184324 60.09947479 -65.39158318 59.06592614 -62 58 C-62 59.65 -62 61.3 -62 63 C-60.1746875 62.87625 -60.1746875 62.87625 -58.3125 62.75 C-54.83360474 62.72528316 -54.06167336 62.95888443 -51 65 C-50.34 65.66 -49.68 66.32 -49 67 C-48.34 66.34 -47.68 65.68 -47 65 C-48.79840638 60.50796685 -48.79840638 60.50796685 -52.5 57.625 C-55.05558108 56.87873219 -55.05558108 56.87873219 -58 57 C-58.33 55.35 -58.66 53.7 -59 52 C-56.8125 51.6875 -56.8125 51.6875 -54 52 C-51.1875 54.5 -51.1875 54.5 -49 57 C-48.67 54.69 -48.34 52.38 -48 50 C-50.97 49.505 -50.97 49.505 -54 49 C-54.33 48.01 -54.66 47.02 -55 46 C-52.03 46.495 -52.03 46.495 -49 47 C-49 45.906875 -49 44.81375 -49 43.6875 C-49 41.45833333 -49 39.22916667 -49 37 C-49.66 36.67 -50.32 36.34 -51 36 Z M-47 36 C-47.33 36.66 -47.66 37.32 -48 38 C-47.01 38.495 -47.01 38.495 -46 39 C-45.375 42.0625 -45.375 42.0625 -45 45 C-44.01 44.34 -43.02 43.68 -42 43 C-42.33 40.69 -42.66 38.38 -43 36 C-44.32 36 -45.64 36 -47 36 Z M-8 36 C-7 38 -7 38 -7 38 Z M-155 39 C-154 41 -154 41 -154 41 Z M-8 39 C-7 41 -7 41 -7 41 Z M5 41 C6 45 6 45 6 45 Z M-67 45 C-66 47 -66 47 -66 47 Z M-46 45 C-45 47 -45 47 -45 47 Z M6 45 C5.67 46.65 5.34 48.3 5 50 C5.99 50 6.98 50 8 50 C7.67 48.35 7.34 46.7 7 45 C6.67 45 6.34 45 6 45 Z M11 46 C12 48 12 48 12 48 Z M2 47 C0.515 50.465 0.515 50.465 -1 54 C0.32 53.34 1.64 52.68 3 52 C3 50.35 3 48.7 3 47 C2.67 47 2.34 47 2 47 Z M-91 52 C-90 55 -90 55 -90 55 Z M-4 53 C-3 55 -3 55 -3 55 Z M-81 54 C-80 57 -80 57 -80 57 Z M-157 57 C-156 60 -156 60 -156 60 Z M-80 57 C-80 58.65 -80 60.3 -80 62 C-79.34 61.67 -78.68 61.34 -78 61 C-78.66 59.68 -79.32 58.36 -80 57 Z M-15 58 C-15.67095703 58.72509766 -15.67095703 58.72509766 -16.35546875 59.46484375 C-18.41563385 61.38799075 -19.53591464 61.41383999 -22.3125 61.5625 C-26.14046057 61.87473169 -29.43060664 62.48300782 -33 64 C-33.33 64.66 -33.66 65.32 -34 66 C-31.03 65.34 -28.06 64.68 -25 64 C-25.99 65.65 -26.98 67.3 -28 69 C-27.34 69 -26.68 69 -26 69 C-26 69.99 -26 70.98 -26 72 C-26.53109375 71.77183594 -27.0621875 71.54367188 -27.609375 71.30859375 C-28.31578125 71.02113281 -29.0221875 70.73367187 -29.75 70.4375 C-30.44609375 70.14746094 -31.1421875 69.85742188 -31.859375 69.55859375 C-34.35634423 68.90701236 -35.60850154 69.07635237 -38 70 C-41.81714069 73.70807953 -42.58923571 76.76275536 -43 82 C-42.236875 81.21625 -41.47375 80.4325 -40.6875 79.625 C-37.27373174 76.2906217 -34.76158347 74.48836754 -30 74 C-29.34 74.66 -28.68 75.32 -28 76 C-28 75.34 -28 74.68 -28 74 C-25 75 -25 75 -23.3125 78.0625 C-22.879375 79.031875 -22.44625 80.00125 -22 81 C-21.34 81 -20.68 81 -20 81 C-19.74875174 78.66761764 -19.74875174 78.66761764 -20 76 C-20.515625 75.401875 -21.03125 74.80375 -21.5625 74.1875 C-23.83324315 70.73202129 -22.7295351 67.97928235 -22 64 C-20.68 64.99 -19.36 65.98 -18 67 C-17.01 65.68 -16.02 64.36 -15 63 C-14.855625 63.61875 -14.71125 64.2375 -14.5625 64.875 C-14.06847775 67.03258322 -14.06847775 67.03258322 -13 69 C-11.35 66.69 -9.7 64.38 -8 62 C-11.09327895 59.02324541 -11.09327895 59.02324541 -15 58 Z M0 59 C-0.33 59.66 -0.66 60.32 -1 61 C0.65 60.67 2.3 60.34 4 60 C2.68 59.67 1.36 59.34 0 59 Z M-158 60 C-157 62 -157 62 -157 62 Z M-63 63 C-64.16945792 63.80847729 -65.33550461 64.62189112 -66.5 65.4375 C-67.1496875 65.88996094 -67.799375 66.34242187 -68.46875 66.80859375 C-68.9740625 67.20175781 -69.479375 67.59492187 -70 68 C-70 68.33 -70 68.66 -70 69 C-69.43410156 69.12117188 -68.86820313 69.24234375 -68.28515625 69.3671875 C-67.55167969 69.53476563 -66.81820312 69.70234375 -66.0625 69.875 C-65.33160156 70.03742188 -64.60070312 70.19984375 -63.84765625 70.3671875 C-62 71 -62 71 -61 73 C-68.5 74.125 -68.5 74.125 -73 73 C-72.01 75.97 -71.02 78.94 -70 82 C-69.01 81.34 -68.02 80.68 -67 80 C-67 79.34 -67 78.68 -67 78 C-64.69 77.34 -62.38 76.68 -60 76 C-60.99 77.98 -61.98 79.96 -63 82 C-62.01 82.33 -61.02 82.66 -60 83 C-60.33 83.66 -60.66 84.32 -61 85 C-63.97 85 -66.94 85 -70 85 C-69.67 87.97 -69.34 90.94 -69 94 C-68.34 94 -67.68 94 -67 94 C-66.360625 93.360625 -65.72125 92.72125 -65.0625 92.0625 C-63 90 -63 90 -60 89 C-61.47189097 94.64224872 -61.47189097 94.64224872 -63.9375 96.3125 C-65.625 96.875 -67.3125 97.4375 -69 98 C-69.66 103.94 -70.32 109.88 -71 116 C-69.68 115.34 -68.36 114.68 -67 114 C-66.44553683 111.74418471 -66.44553683 111.74418471 -66.5 109.1875 C-66.22827291 104.60127689 -65.45501324 102.2456185 -62 99 C-61.01 98.505 -61.01 98.505 -60 98 C-58.72649942 101.01009228 -59.00312602 102.00781505 -60.25 105.125 C-62 108 -62 108 -65 110 C-65 110.66 -65 111.32 -65 112 C-60.00794525 111.53199487 -55.83050493 109.13712435 -52 106 C-50.63287983 104.09498775 -50.63287983 104.09498775 -50 102 C-50.33 101.01 -50.66 100.02 -51 99 C-51.45375 99.495 -51.9075 99.99 -52.375 100.5 C-54 102 -54 102 -56 102 C-55.6875 100.125 -55.6875 100.125 -55 98 C-54.01 97.34 -53.02 96.68 -52 96 C-52.61875 95.896875 -53.2375 95.79375 -53.875 95.6875 C-56 95 -56 95 -58 92 C-51.25 92.875 -51.25 92.875 -49 94 C-49 92.35 -49 90.7 -49 89 C-50.11375 88.608125 -51.2275 88.21625 -52.375 87.8125 C-55.31960666 86.57517033 -55.85882545 86.26393503 -57.4375 83.3125 C-57.623125 82.549375 -57.80875 81.78625 -58 81 C-53.545 82.98 -53.545 82.98 -49 85 C-48.70996094 83.87851563 -48.70996094 83.87851563 -48.4140625 82.734375 C-48.15367187 81.74953125 -47.89328125 80.7646875 -47.625 79.75 C-47.24214844 78.28820312 -47.24214844 78.28820312 -46.8515625 76.796875 C-46.10401491 74.34162697 -45.22876183 72.24382595 -44 70 C-45.32 70 -46.64 70 -48 70 C-48.474375 70.804375 -48.94875 71.60875 -49.4375 72.4375 C-51 75 -51 75 -53.6875 75.8125 C-54.450625 75.874375 -55.21375 75.93625 -56 76 C-54.92598892 73.08482708 -54.22189824 71.22189824 -52 69 C-52.54269531 68.81824219 -53.08539063 68.63648437 -53.64453125 68.44921875 C-54.35996094 68.19785156 -55.07539063 67.94648437 -55.8125 67.6875 C-56.52019531 67.44386719 -57.22789062 67.20023437 -57.95703125 66.94921875 C-60.14472373 65.93275742 -61.40896718 64.79179406 -63 63 Z M-18 67 C-18 69.64 -18 72.28 -18 75 C-16.78309467 73.23470405 -16.78309467 73.23470405 -16 71 C-16.78309467 68.76529595 -16.78309467 68.76529595 -18 67 Z M-143 69 C-143 69.66 -143 70.32 -143 71 C-145.97 70.67 -148.94 70.34 -152 70 C-150.68 73.63 -149.36 77.26 -148 81 C-147.34 79.68 -146.68 78.36 -146 77 C-144.375 75.25 -144.375 75.25 -143 74 C-142 75 -142 75 -141.75 77.75 C-142.02565926 81.33357037 -142.95193885 83.09858004 -145 86 C-144.01 86.33 -143.02 86.66 -142 87 C-141.71125 86.360625 -141.4225 85.72125 -141.125 85.0625 C-140 83 -140 83 -138 82 C-138 83.65 -138 85.3 -138 87 C-138.99 87.33 -139.98 87.66 -141 88 C-140.42547254 91.93075644 -140.42547254 91.93075644 -138 95 C-137.67 92.69 -137.34 90.38 -137 88 C-136.01 88 -135.02 88 -134 88 C-132.17191856 91.65616289 -132.69544981 95.80948564 -133.6875 99.6875 C-134.25132108 102.10093764 -134.25132108 102.10093764 -132.6875 104.3125 C-132.130625 104.869375 -131.57375 105.42625 -131 106 C-130.34 106 -129.68 106 -129 106 C-129.01160156 105.33355469 -129.02320313 104.66710937 -129.03515625 103.98046875 C-129.10097366 97.25769055 -128.72383639 90.682561 -128 84 C-129.093125 83.773125 -130.18625 83.54625 -131.3125 83.3125 C-135 82 -135 82 -136.9375 79.375 C-137.288125 78.59125 -137.63875 77.8075 -138 77 C-135.36 77.66 -132.72 78.32 -130 79 C-130.33 77.35 -130.66 75.7 -131 74 C-131.92232422 73.70996094 -131.92232422 73.70996094 -132.86328125 73.4140625 C-134.07564453 73.02347656 -134.07564453 73.02347656 -135.3125 72.625 C-136.11300781 72.36976562 -136.91351563 72.11453125 -137.73828125 71.8515625 C-140 71 -140 71 -143 69 Z M-0.125 70.9375 C-2.8202976 71.93358824 -4.22065945 72.03103577 -7 72.0625 C-9.93128427 72.34061046 -10.74146647 72.68975977 -12.66015625 74.9921875 C-13.98731179 77.30639186 -15.15046306 79.4699583 -16 82 C-15.67 82.66 -15.34 83.32 -15 84 C-12.49034386 83.29660434 -12.49034386 83.29660434 -10 82 C-9.11306697 79.95894361 -9.11306697 79.95894361 -9 78 C-6.53199953 79.15173355 -4.95216435 80.04783565 -3 82 C-2.71125 80.865625 -2.4225 79.73125 -2.125 78.5625 C-1.75375 77.386875 -1.3825 76.21125 -1 75 C-0.34 74.67 0.32 74.34 1 74 C0.67 76.64 0.34 79.28 0 82 C2.16658535 80.50520579 2.16658535 80.50520579 4 78 C4.35800135 75.24128373 4.18660165 72.79902476 4 70 C1.91787043 69.86545326 1.91787043 69.86545326 -0.125 70.9375 Z M-30 76 C-30.721875 76.78375 -31.44375 77.5675 -32.1875 78.375 C-35.12039129 81.1123652 -37.163871 82.01866468 -41 83 C-41 83.33 -41 83.66 -41 84 C-40.071875 84.2475 -39.14375 84.495 -38.1875 84.75 C-34.83541675 86.06454245 -33.8122197 86.97963384 -32 90 C-36.27786748 89.50639991 -39.09567131 88.95216435 -43 87 C-43 92.94 -43 98.88 -43 105 C-42.34 105 -41.68 105 -41 105 C-40.98582031 104.40832031 -40.97164062 103.81664062 -40.95703125 103.20703125 C-40.68146275 98.64153157 -40.46722068 96.55838569 -37.4375 92.9375 C-36.633125 92.298125 -35.82875 91.65875 -35 91 C-35.33 94.3 -35.66 97.6 -36 101 C-33.38987933 100.1386077 -33.38987933 100.1386077 -31 98 C-30.50541677 95.65180486 -30.37530887 93.45631028 -30.3359375 91.05859375 C-30.22507813 90.37925781 -30.11421875 89.69992188 -30 89 C-29.01 88.34 -28.02 87.68 -27 87 C-27 88.65 -27 90.3 -27 92 C-24.74754119 89.31158141 -23.11786042 87.35358125 -22 84 C-24.97 84 -27.94 84 -31 84 C-31 83.34 -31 82.68 -31 82 C-29.02 81.67 -27.04 81.34 -25 81 C-25.66 80.67 -26.32 80.34 -27 80 C-28.125 77.9375 -28.125 77.9375 -29 76 C-29.33 76 -29.66 76 -30 76 Z M-153 78 C-152 81 -152 81 -152 81 Z M-181 79 C-181 79.66 -181 80.32 -181 81 C-180.34 80.67 -179.68 80.34 -179 80 C-179.66 79.67 -180.32 79.34 -181 79 Z M-79 81 C-78 83 -78 83 -78 83 Z M-10 83 C-10.391875 83.45375 -10.78375 83.9075 -11.1875 84.375 C-13.30832487 86.27642919 -15.33042235 87.06204028 -18 88 C-15.29120665 89.35439668 -12.99066732 89.06501451 -10 89 C-9.67 89.66 -9.34 90.32 -9 91 C-9.845625 91.10054687 -10.69125 91.20109375 -11.5625 91.3046875 C-18.40576176 92.44004684 -22.43269672 93.60818303 -26.8125 99.1875 C-27.90937699 100.76835983 -28.98490627 102.36542309 -30 104 C-28.1727677 106.15931527 -28.1727677 106.15931527 -25.6875 106.625 C-22.92746018 106.28580753 -22.92746018 106.28580753 -21.703125 104.28125 C-20.86735507 102.85734568 -20.06791689 101.41141047 -19.30859375 99.9453125 C-17.79107979 97.68942607 -16.49111847 97.0006607 -14 96 C-15.50239966 99.61941735 -16.82145293 102.7321794 -19 106 C-16.36 106 -13.72 106 -11 106 C-11.99 104.35 -12.98 102.7 -14 101 C-12.35 101 -10.7 101 -9 101 C-8.67 98.69 -8.34 96.38 -8 94 C-5 96 -5 96 -4.3125 98.625 C-4.209375 99.40875 -4.10625 100.1925 -4 101 C-3.67 101 -3.34 101 -3 101 C-2.86503749 98.89758397 -2.76802693 96.7927039 -2.6875 94.6875 C-2.62949219 93.51574219 -2.57148438 92.34398438 -2.51171875 91.13671875 C-2.65317193 87.82448302 -2.65317193 87.82448302 -5.39453125 86.20703125 C-6.68423828 85.60955078 -6.68423828 85.60955078 -8 85 C-8.66 84.34 -9.32 83.68 -10 83 Z M2 84 C1.67 84.66 1.34 85.32 1 86 C1.99 85.67 2.98 85.34 4 85 C3.34 84.67 2.68 84.34 2 84 Z M7 86 C6.566875 86.45375 6.13375 86.9075 5.6875 87.375 C4 89 4 89 0 91 C0 94.3 0 97.6 0 101 C0.66 100.67 1.32 100.34 2 100 C2.309375 98.865625 2.61875 97.73125 2.9375 96.5625 C4 93 4 93 7 91 C7 92.65 7 94.3 7 96 C7.33 96 7.66 96 8 96 C8 92.7 8 89.4 8 86 C7.67 86 7.34 86 7 86 Z M-150 87 C-150.33 88.32 -150.66 89.64 -151 91 C-152.65 91.33 -154.3 91.66 -156 92 C-156.33 93.65 -156.66 95.3 -157 97 C-155.576875 96.2575 -155.576875 96.2575 -154.125 95.5 C-151 94 -151 94 -149 94 C-149.33 95.98 -149.66 97.96 -150 100 C-147.03 100 -144.06 100 -141 100 C-142.99109948 94.76026452 -145.18253892 91.11883959 -149 87 C-149.33 87 -149.66 87 -150 87 Z M-90.375 89.75 C-92.29274528 91.94276455 -92.29274528 91.94276455 -92 95 C-91.05125 95.598125 -90.1025 96.19625 -89.125 96.8125 C-85.49679808 99.35224134 -85.10925445 100.84029583 -84 105 C-83.34 105.33 -82.68 105.66 -82 106 C-81.375 108.5625 -81.375 108.5625 -81 111 C-78.56955861 107.35433792 -78.73689308 104.64363257 -78.8125 100.4375 C-78.8134668 99.40979492 -78.8134668 99.40979492 -78.81445312 98.36132812 C-78.79957573 94.55369027 -78.79957573 94.55369027 -80 91 C-80.66 91 -81.32 91 -82 91 C-82 90.34 -82 89.68 -82 89 C-86.44483484 87.70980933 -86.44483484 87.70980933 -90.375 89.75 Z M12 89 C13 91 13 91 13 91 Z M26 90 C26.33 90.99 26.66 91.98 27 93 C27.33 92.01 27.66 91.02 28 90 C27.34 90 26.68 90 26 90 Z M14 92 C12.2856382 93.95927063 10.61594832 95.95880212 9 98 C10.98 98 12.96 98 15 98 C15.33 96.02 15.66 94.04 16 92 C15.34 92 14.68 92 14 92 Z M-138 95 C-137.67 96.32 -137.34 97.64 -137 99 C-136.34 98.67 -135.68 98.34 -135 98 C-135.99 97.01 -136.98 96.02 -138 95 Z M-158 97 C-157 99 -157 99 -157 99 Z M-155.625 102.5 C-156.25664062 102.9640625 -156.88828125 103.428125 -157.5390625 103.90625 C-158.02117187 104.2671875 -158.50328125 104.628125 -159 105 C-158.67 105.66 -158.34 106.32 -158 107 C-155.69 106.34 -153.38 105.68 -151 105 C-152.25 107 -152.25 107 -154 109 C-155.32 109 -156.64 109 -158 109 C-157.71432018 112.3329312 -157.0185525 113.97507008 -155 116.6875 C-151.16790653 119.64140538 -147.71394872 120.31190727 -143 121 C-143.8971875 120.3503125 -143.8971875 120.3503125 -144.8125 119.6875 C-148.7027027 116.68648649 -148.7027027 116.68648649 -150 115 C-150.1875 112.3125 -150.1875 112.3125 -150 110 C-145.30835249 112.14475315 -143.52331213 114.99857253 -141.11328125 119.35546875 C-140.74589844 119.89816406 -140.37851563 120.44085938 -140 121 C-139.34 121 -138.68 121 -138 121 C-138.66 117.37 -139.32 113.74 -140 110 C-138.68 110.66 -137.36 111.32 -136 112 C-135.25 115.625 -135.25 115.625 -135 119 C-130.12637153 118.54663921 -127.60957611 117.2910841 -124 114 C-125.03125 113.608125 -126.0625 113.21625 -127.125 112.8125 C-131.46932308 110.95821576 -135.82872841 108.34254318 -138 104 C-138.53625 104.28875 -139.0725 104.5775 -139.625 104.875 C-142.35280484 106.16711808 -145.12612718 107.08558592 -148 108 C-147.773125 107.236875 -147.54625 106.47375 -147.3125 105.6875 C-146.69244419 102.99475803 -146.69244419 102.99475803 -148.3125 101.1875 C-151.43807021 98.98802466 -152.85363573 100.44713758 -155.625 102.5 Z M6 100 C6.33 100.66 6.66 101.32 7 102 C9.52733235 102.65555119 9.52733235 102.65555119 12 103 C11.67 102.34 11.34 101.68 11 101 C8.47266765 100.34444881 8.47266765 100.34444881 6 100 Z M12 103 C13 105 13 105 13 105 Z M-29 110 C-27.35 111.65 -25.7 113.3 -24 115 C-23.67 114.34 -23.34 113.68 -23 113 C-24.31201173 111.43750191 -24.31201173 111.43750191 -26 110 C-26.99 110 -27.98 110 -29 110 Z M-82 112 C-81 114 -81 114 -81 114 Z M-83 114 C-82 116 -82 116 -82 116 Z M-118 116 C-118.33 116.66 -118.66 117.32 -119 118 C-117.68 117.34 -116.36 116.68 -115 116 C-115.99 116 -116.98 116 -118 116 Z M-74 117 C-74.33 117.66 -74.66 118.32 -75 119 C-74.01 118.67 -73.02 118.34 -72 118 C-72.66 117.67 -73.32 117.34 -74 117 Z M-121 121 C-120 123 -120 123 -120 123 Z M-86 156 C-85 158 -85 158 -85 158 Z M-95 158 C-94 160 -94 160 -94 160 Z M-87 158 C-86 161 -86 161 -86 161 Z M-96 160 C-95 163 -95 163 -95 163 Z M-88 163 C-87 165 -87 165 -87 165 Z M-97 165 C-96 168 -96 168 -96 168 Z M-88 166 C-88 167.65 -88 169.3 -88 171 C-87.67 171 -87.34 171 -87 171 C-87 169.35 -87 167.7 -87 166 C-87.33 166 -87.66 166 -88 166 Z M-98 168 C-98 169.65 -98 171.3 -98 173 C-97.67 173 -97.34 173 -97 173 C-97 171.35 -97 169.7 -97 168 C-97.33 168 -97.66 168 -98 168 Z M-88 172 C-88 175.96 -88 179.92 -88 184 C-87.67 184 -87.34 184 -87 184 C-87 180.04 -87 176.08 -87 172 C-87.33 172 -87.66 172 -88 172 Z M-99 177 C-98 180 -98 180 -98 180 Z M-79 177 C-78 179 -78 179 -78 179 Z M-99 181 C-98 184 -98 184 -98 184 Z M-77 181 C-76 183 -76 183 -76 183 Z M-76 183 C-75.67 183.99 -75.34 184.98 -75 186 C-75 185.01 -75 184.02 -75 183 C-75.33 183 -75.66 183 -76 183 Z M-87 185 C-86 187 -86 187 -86 187 Z M-98 186 C-97 188 -97 188 -97 188 Z M-4 186 C-5.74186808 186.82874346 -7.44388044 187.74158395 -9.125 188.6875 C-23.60423643 196.09067677 -42.757219 200.02419529 -58.5625 195 C-59.57441406 194.608125 -60.58632812 194.21625 -61.62890625 193.8125 C-62.41136719 193.544375 -63.19382813 193.27625 -64 193 C-64.99 193.495 -64.99 193.495 -66 194 C-59.12298603 197.70032224 -52.77568835 200.90743065 -45 202 C-43.90945312 202.16435547 -43.90945312 202.16435547 -42.796875 202.33203125 C-40.53281407 202.62889239 -38.27590689 202.81808227 -36 203 C-35.24203125 203.11214844 -34.4840625 203.22429687 -33.703125 203.33984375 C-23.13630229 204.32400861 -13.99761397 196.74456632 -6.125 190.5 C-4.74152441 189.34339661 -3.3629089 188.180769 -2 187 C-2.66 186.67 -3.32 186.34 -4 186 Z M-86 187 C-85 189 -85 189 -85 189 Z M-98 189 C-99.32 190.32 -100.64 191.64 -102 193 C-100.35 192.34 -98.7 191.68 -97 191 C-97.33 190.34 -97.66 189.68 -98 189 Z M-84 190 C-83.67 190.99 -83.34 191.98 -83 193 C-83 192.01 -83 191.02 -83 190 C-83.33 190 -83.66 190 -84 190 Z M-69 191 C-68.67 191.66 -68.34 192.32 -68 193 C-67.34 192.67 -66.68 192.34 -66 192 C-66.99 191.67 -67.98 191.34 -69 191 Z M-97 192 C-96 194 -96 194 -96 194 Z M-96 194 C-95 196 -95 196 -95 196 Z M-143 196 C-136.58020362 201.81794047 -130.31910513 203.51971912 -121.765625 203.3046875 C-117.59649144 202.84537618 -113.86023132 201.60128114 -110 200 C-112.84709245 198.77405199 -112.84709245 198.77405199 -115.25390625 199.45703125 C-118.60189754 200.11900961 -121.53628989 199.93492788 -124.9375 199.6875 C-126.12214844 199.60886719 -127.30679688 199.53023437 -128.52734375 199.44921875 C-131.92549844 199.00963744 -134.78970719 198.16779553 -138 197 C-139.66088045 196.63893903 -141.32618981 196.29537827 -143 196 Z M-75 200 C-74.67 200.66 -74.34 201.32 -74 202 C-73.34 201.67 -72.68 201.34 -72 201 C-72.99 200.67 -73.98 200.34 -75 200 Z M-93 201 C-92 203 -92 203 -92 203 Z M-103.9375 203.9375 C-109.62458139 206.06639422 -114.95968118 206.76633196 -121 207 C-116.69854381 209.86763746 -113.04941902 209.71627995 -108 209 C-101.48955448 206.75518065 -101.48955448 206.75518065 -97 202 C-99.64596438 202 -101.48151445 202.94735375 -103.9375 203.9375 Z M-92 203 C-91.67 203.99 -91.34 204.98 -91 206 C-91 205.01 -91 204.02 -91 203 C-91.33 203 -91.66 203 -92 203 Z M-82 204 C-81.33240905 207.00903902 -81.33240905 207.00903902 -79.3984375 208.09765625 C-69.66329757 212.73970174 -59.56407556 215.17195678 -48.87109375 212.1015625 C-46.51936885 211.15819632 -44.25085301 210.16173059 -42 209 C-42 208.67 -42 208.34 -42 208 C-43.02480469 208.02320313 -44.04960937 208.04640625 -45.10546875 208.0703125 C-46.46613851 208.08908036 -47.8268162 208.10727947 -49.1875 208.125 C-49.86103516 208.14175781 -50.53457031 208.15851563 -51.22851562 208.17578125 C-55.33147256 208.2158101 -58.28001466 207.67828824 -62 206 C-62.99 206 -63.98 206 -65 206 C-65 206.66 -65 207.32 -65 208 C-67.08450717 207.7168444 -69.16758367 207.42314331 -71.25 207.125 C-72.99023438 206.88136719 -72.99023438 206.88136719 -74.765625 206.6328125 C-77.58193313 206.08179569 -79.55217557 205.44203518 -82 204 Z M-90 206 C-90 206.66 -90 207.32 -90 208 C-95.6702363 209.54642808 -101.147205 210.48517081 -107 211 C-102.05398204 215.94601796 -93.03790373 215.10783749 -86.43530273 215.13623047 C-82.62262361 215.11990512 -78.81207143 215.071106 -75 215 C-75.59554687 214.70351562 -76.19109375 214.40703125 -76.8046875 214.1015625 C-78.58579764 213.2078382 -80.35698895 212.29436575 -82.125 211.375 C-84.76956354 209.8561815 -84.76956354 209.8561815 -87 210 C-87.66 208.68 -88.32 207.36 -89 206 C-89.33 206 -89.66 206 -90 206 Z " fill="#221E20" transform="translate(204,27)"/>
<path d="" fill="#221E20" transform="translate(0,0)"/>
</svg>
